<svg preserveAspectRatio="none" overflow="visible" style="display: block;" width="16.8" height="21.84" viewBox="0 0 16.8 21.84" fill="none" xmlns="http://www.w3.org/2000/svg">
<g id="Platform mark">
<path id="Vector" d="M5.5066 13.778L6.47503 13.5459C6.49479 13.5422 6.52797 13.5319 6.57032 13.5188C6.83713 13.4433 7.06794 13.2661 7.20911 13.0164C7.35098 12.7704 7.39686 12.4768 7.33404 12.1963C7.33404 12.1897 7.33051 12.1824 7.33051 12.1795C7.29734 12.0462 7.24158 11.9195 7.16605 11.8068C7.05735 11.6633 6.92253 11.5439 6.77078 11.4546C6.58937 11.3484 6.40162 11.2561 6.20751 11.1844L5.1438 10.7809C4.54806 10.5517 3.95162 10.3262 3.34883 10.108C2.95708 9.96444 2.62745 9.83776 2.34088 9.74549C2.28794 9.72865 2.22583 9.71108 2.17924 9.69424C1.83337 9.58513 1.58633 9.5368 1.38234 9.5368C1.24399 9.53021 1.10565 9.55731 0.98071 9.61223C0.848717 9.67007 0.730134 9.75941 0.631316 9.86851C0.581906 9.92636 0.536026 9.98494 0.49297 10.0494C0.453442 10.1145 0.417444 10.179 0.384269 10.2478C0.348271 10.3196 0.315096 10.395 0.28898 10.4733C0.092754 11.0789 -0.00606463 11.7145 0.000288001 12.353C0.00381724 12.93 0.0200517 13.6718 0.32286 14.1741C0.395563 14.3037 0.494381 14.4136 0.612964 14.5022C0.830365 14.6596 1.05129 14.6801 1.2814 14.697C1.62374 14.7211 1.95619 14.6354 2.28582 14.5571L5.5066 13.778Z" fill="#D32323"/>
<path id="Vector_2" d="M16.3184 8.43822C16.0551 7.86121 15.6994 7.33472 15.2646 6.88366C15.2088 6.82581 15.1495 6.77455 15.0867 6.7233C15.0274 6.67863 14.9681 6.63469 14.9053 6.59662C14.8396 6.55927 14.7733 6.52852 14.7076 6.49776C14.5728 6.44285 14.4274 6.41941 14.2863 6.426C14.1479 6.43259 14.0131 6.4736 13.891 6.54243C13.7068 6.63836 13.5056 6.79213 13.2388 7.04841C13.2028 7.08576 13.1562 7.13043 13.1138 7.16777C12.8929 7.38305 12.6494 7.64593 12.36 7.95347C11.9118 8.42504 11.4678 8.89661 11.0295 9.37477L10.2425 10.2183C10.0978 10.3721 9.96929 10.5398 9.85071 10.717C9.75189 10.8671 9.67919 11.0348 9.64319 11.2127C9.61989 11.3496 9.62342 11.4895 9.65307 11.6228C9.65307 11.6294 9.6566 11.6367 9.6566 11.6396C9.71942 11.9201 9.88388 12.1624 10.1147 12.3191C10.3455 12.4766 10.6286 12.5344 10.9017 12.4795C10.9448 12.4729 10.9772 12.4656 10.997 12.459L15.189 11.458C15.5187 11.3797 15.8539 11.3079 16.1504 11.1263C16.348 11.0069 16.5393 10.8869 16.6678 10.6481C16.737 10.5149 16.78 10.3714 16.7899 10.2212C16.8591 9.63398 16.5591 8.96031 16.3191 8.43822H16.3184Z" fill="#D32323"/>
<path id="Vector_3" d="M8.81914 10.269C9.12195 9.87284 9.12195 9.28192 9.14877 8.8001C9.24124 7.18769 9.33653 5.57821 9.41206 3.9658C9.4417 3.35437 9.50452 2.75319 9.46782 2.13811C9.43817 1.62919 9.43464 1.04852 9.12548 0.631139C8.58551 -0.106234 7.41945 -0.0447253 6.6289 0.0680409C6.38538 0.102457 6.14116 0.150053 5.90117 0.211561C5.66048 0.27307 5.42049 0.33824 5.18685 0.416591C4.42595 0.676539 3.35588 1.15104 3.17448 2.05975C3.07213 2.57599 3.31283 3.10174 3.50411 3.56965C3.73139 4.14007 4.04408 4.65264 4.32713 5.18572C5.07815 6.60042 5.83905 8.00414 6.59925 9.41152C6.82654 9.83183 7.07358 10.3649 7.51474 10.5802C7.54438 10.5941 7.57403 10.6044 7.60367 10.6146C7.80131 10.693 8.01518 10.7069 8.2227 10.6593C8.23611 10.6556 8.24599 10.6527 8.2587 10.649C8.44998 10.5941 8.6208 10.4887 8.75632 10.3415C8.77256 10.321 8.79585 10.2939 8.81914 10.2697V10.269Z" fill="#D32323"/>
<path id="Vector_4" d="M8.45892 14.5805C8.34033 14.4062 8.17234 14.2766 7.97823 14.2114C7.78413 14.1433 7.57661 14.1397 7.37897 14.2048C7.33309 14.2217 7.2865 14.2392 7.24415 14.2627C7.17851 14.2971 7.11216 14.3381 7.05287 14.3857C6.87852 14.519 6.7303 14.6932 6.5983 14.8712C6.56513 14.9158 6.53266 14.9737 6.49313 15.0147L5.81834 15.9783C5.43648 16.518 5.06097 17.0577 4.68546 17.6046C4.44194 17.9598 4.23089 18.2571 4.0629 18.5236C4.02972 18.5749 3.99726 18.6298 3.96761 18.6737C3.76644 18.9952 3.65492 19.2273 3.59563 19.4353C3.55257 19.5751 3.53987 19.7186 3.5561 19.8658C3.57586 20.0159 3.62174 20.1595 3.7008 20.2898C3.74033 20.355 3.78338 20.4165 3.83279 20.478C3.8822 20.5358 3.93161 20.5908 3.98737 20.6457C4.04666 20.7035 4.10596 20.7548 4.1716 20.8031C4.63605 21.1377 5.14638 21.3801 5.68352 21.5646C6.12821 21.7184 6.59266 21.8107 7.06346 21.8378C7.14251 21.8414 7.2251 21.8414 7.30415 21.8312C7.37685 21.8246 7.45238 21.8143 7.52508 21.8004C7.59778 21.7836 7.66978 21.7631 7.73895 21.7353C7.8773 21.6803 7.99941 21.5983 8.10458 21.4929C8.2034 21.3904 8.27893 21.2674 8.32833 21.1304C8.40739 20.9291 8.4568 20.6728 8.48997 20.2935C8.4935 20.2385 8.49986 20.1741 8.50621 20.1155C8.53232 19.8014 8.54574 19.4287 8.5655 18.9952C8.59867 18.3259 8.62479 17.6596 8.64455 16.9896L8.68761 15.8004C8.69749 15.5273 8.69114 15.2234 8.61491 14.9495C8.58173 14.8199 8.5295 14.6932 8.46033 14.5805H8.45892Z" fill="#D32323"/>
<path id="Vector_5" d="M16.0638 16.4397C15.9219 16.2793 15.7243 16.1183 15.4088 15.9235C15.3629 15.8964 15.31 15.862 15.2606 15.8312C15.0001 15.6672 14.6846 15.4966 14.3154 15.2879C13.7493 14.9664 13.1825 14.6523 12.6129 14.3382L11.6022 13.7817C11.5492 13.7648 11.497 13.7267 11.4476 13.7033C11.2535 13.6074 11.0488 13.5188 10.8349 13.4741C10.7622 13.4602 10.6867 13.4499 10.6111 13.4499C10.5617 13.4499 10.5159 13.4536 10.4664 13.4602C10.2653 13.4946 10.0775 13.5898 9.93282 13.7406C9.78812 13.8915 9.69213 14.0826 9.65613 14.2906C9.6399 14.4238 9.64625 14.5571 9.66954 14.6904C9.71895 14.9708 9.83753 15.2439 9.96247 15.4863L10.5024 16.5349C10.8024 17.1258 11.1052 17.7138 11.4179 18.3011C11.6191 18.684 11.7871 19.0114 11.9417 19.2816C11.9713 19.3328 12.0045 19.3877 12.0306 19.4353C12.2219 19.7597 12.3729 19.9684 12.531 20.1149C12.6334 20.2137 12.752 20.2928 12.8833 20.3404C13.0216 20.388 13.1698 20.4056 13.3145 20.3917C13.3872 20.3814 13.4628 20.3675 13.5355 20.3506C13.6082 20.3301 13.6773 20.306 13.7465 20.2789C13.822 20.2481 13.8947 20.2137 13.9639 20.1764C14.3754 19.9369 14.7509 19.6433 15.0869 19.3021C15.4885 18.892 15.8478 18.4409 16.1245 17.9284C16.164 17.8566 16.1972 17.7812 16.2233 17.7028C16.2495 17.6311 16.2727 17.5593 16.2925 17.4839C16.3087 17.4085 16.3222 17.3338 16.3285 17.2547C16.3419 17.1046 16.325 16.9508 16.2791 16.8073C16.236 16.6704 16.1605 16.5444 16.0652 16.4382L16.0638 16.4397Z" fill="#D32323"/>
</g>
</svg>
