<svg preserveAspectRatio="none" overflow="visible" style="display: block;" width="58.8669" height="80" viewBox="0 0 58.8669 80" fill="none" xmlns="http://www.w3.org/2000/svg">
<g id="Angi / original artwork">
<path id="Vector" d="M30.7897 65.2314C31.4097 62.6228 32.8183 52.5857 33.0669 49.6257C31.1211 48.9628 29.0926 48.6114 27.044 48.5914C25.2011 48.5714 23.3583 48.88 21.6011 49.5028C27.8326 53.0628 31.1011 59.1057 30.7926 65.2343L30.7897 65.2314Z" fill="#9E3127"/>
<path id="Vector_2" d="M29.7669 0L23.784 37.34C23.6611 37.36 23.5354 37.36 23.3897 37.38C10.164 39.14 -0.124574 50.2743 0.0011398 62.7371C0.0439969 67.9543 1.824 72.0114 5.00971 75.3429C7.804 78.3029 11.6954 79.98 15.7726 80C17.3469 80 18.8983 79.7514 20.3669 79.2343C27.5069 76.7714 29.8669 70.7914 30.984 65.3057C31.2869 59.2057 28.0383 53.1714 21.8154 49.5943L19.8497 62.0343C19.2069 65.5743 18.4011 67.6857 16.6211 68.2857C15.5669 68.6571 14.2611 68.2657 13.3926 67.3543C12.2526 66.1743 11.5926 64.8486 11.5697 62.6143C11.5069 56.3829 16.4126 51.5 21.8154 49.5943C23.5554 48.9743 25.3954 48.6629 27.2383 48.6829C29.2869 48.7029 31.3354 49.0543 33.2611 49.7171C40.5669 51.4343 44.9754 59.1771 46.0726 67.56L46.7154 72.26H58.8669L47.2754 0H29.764H29.7669ZM34.8154 38.1486L38.3126 11.4257H38.7269L42.6183 41.2514C40.1554 39.9057 37.5269 38.8514 34.8154 38.1457V38.1486Z" fill="#FD6253"/>
</g>
</svg>
